{"asset":{"version":"2.0","generator":"VECTARY"},"nodes":[{"translation":[-0.0036155205203574443,0.027007297060299876,0.04374207632097633],"scale":[0.0009999999999999998,0.0009999999999999998,0.001],"rotation":[-0.4938607841824038,0.5060647447182436,0.5060647447182437,0.4938607841824039],"name":"3D Text 1 - J","mesh":0},{"translation":[-0.004267591017146087,0.027007297060299876,0.01703251715625915],"scale":[0.0009999999999999998,0.0009999999999999998,0.001],"rotation":[-0.4938607841824038,0.5060647447182436,0.5060647447182437,0.4938607841824039],"name":"3D Text 1 - D","mesh":1},{"translation":[-0.002374966243723726,0.027007297060299876,0.04374207632097633],"scale":[0.0009999999999999998,0.0009999999999999998,0.001],"rotation":[-0.4938607841824038,0.5060647447182436,0.5060647447182437,0.4938607841824039],"name":"3D Text - J","mesh":2},{"translation":[-0.0030270367405123687,0.027007297060299876,0.01703251715625915],"scale":[0.0009999999999999998,0.0009999999999999998,0.001],"rotation":[-0.4938607841824038,0.5060647447182436,0.5060647447182437,0.4938607841824039],"name":"3D Text - D","mesh":3},{"translation":[-0.003006077788819255,-0.0006129841120564237,0.00010289499149723708],"scale":[0.001,0.001,0.001],"rotation":[-0.7071067811865475,0,0,0.7071067811865476],"name":"Presets","children":[5]},{"translation":[0,0,0],"scale":[1,1,1],"rotation":[0,0,0,1],"name":"S (up to 4 \", 10 cm)","children":[6,7]},{"translation":[0,0,0],"scale":[1,1,1],"rotation":[0,0,0,1],"name":"Lights"},{"translation":[-0.0000019073486328125,-0.0000019073486328125,0.9999254941940308],"scale":[1,1,1],"rotation":[0,0,0,1],"name":"Placeholder","mesh":4},{"translation":[0.11492650500681142,0.0922901604363513,0.08766614600624172],"scale":[1,1,1],"rotation":[-0.1924845533542084,0.4518880233108027,0.10052867084572209,0.8652403697506715],"name":"Camera","camera":0}],"materials":[{"pbrMetallicRoughness":{"baseColorFactor":[0.37867625092984036,0.2888159727972186,0.7011695015314021,1],"metallicFactor":0,"roughnessFactor":0.25},"name":"Kimono 1","emissiveFactor":[0,0,0],"extensions":{},"alphaMode":"OPAQUE","doubleSided":false},{"pbrMetallicRoughness":{"baseColorFactor":[1,1,1,1],"metallicFactor":0,"roughnessFactor":0.25},"name":"Kimono","emissiveFactor":[0,0,0],"extensions":{},"alphaMode":"OPAQUE","doubleSided":false},{"pbrMetallicRoughness":{"baseColorFactor":[0,0,0,1],"metallicFactor":0,"roughnessFactor":1},"name":"Bermuda","emissiveFactor":[0,0,0],"extensions":{},"alphaMode":"OPAQUE","doubleSided":false}],"meshes":[{"primitives":[{"mode":4,"attributes":{"POSITION":1,"NORMAL":2,"TEXCOORD_0":3},"material":0,"indices":0}]},{"primitives":[{"mode":4,"attributes":{"POSITION":5,"NORMAL":6,"TEXCOORD_0":7},"material":0,"indices":4}]},{"primitives":[{"mode":4,"attributes":{"POSITION":9,"NORMAL":10,"TEXCOORD_0":11},"material":1,"indices":8}]},{"primitives":[{"mode":4,"attributes":{"POSITION":13,"NORMAL":14,"TEXCOORD_0":15},"material":1,"indices":12}]},{"primitives":[{"mode":4,"attributes":{"POSITION":17,"NORMAL":18,"TEXCOORD_0":19},"material":2,"indices":16}]}],"accessors":[{"bufferView":0,"byteOffset":0,"componentType":5125,"count":228,"type":"SCALAR"},{"bufferView":1,"byteOffset":0,"componentType":5126,"count":149,"max":[23.600000381469727,2.4094925798909218e-15,39.349998474121094],"min":[1.399999976158142,-3,-1.399999976158142],"type":"VEC3"},{"bufferView":2,"byteOffset":0,"componentType":5126,"count":149,"type":"VEC3"},{"bufferView":3,"byteOffset":0,"componentType":5126,"count":149,"type":"VEC2"},{"bufferView":4,"byteOffset":0,"componentType":5125,"count":240,"type":"SCALAR"},{"bufferView":5,"byteOffset":0,"componentType":5126,"count":150,"max":[23.600000381469727,2.4094925798909218e-15,39.349998474121094],"min":[1.399999976158142,-3,-1.399999976158142],"type":"VEC3"},{"bufferView":6,"byteOffset":0,"componentType":5126,"count":150,"type":"VEC3"},{"bufferView":7,"byteOffset":0,"componentType":5126,"count":150,"type":"VEC2"},{"bufferView":8,"byteOffset":0,"componentType":5125,"count":228,"type":"SCALAR"},{"bufferView":9,"byteOffset":0,"componentType":5126,"count":149,"max":[23.600000381469727,2.4094925798909218e-15,39.349998474121094],"min":[1.399999976158142,-3,-1.399999976158142],"type":"VEC3"},{"bufferView":10,"byteOffset":0,"componentType":5126,"count":149,"type":"VEC3"},{"bufferView":11,"byteOffset":0,"componentType":5126,"count":149,"type":"VEC2"},{"bufferView":12,"byteOffset":0,"componentType":5125,"count":240,"type":"SCALAR"},{"bufferView":13,"byteOffset":0,"componentType":5126,"count":150,"max":[23.600000381469727,2.4094925798909218e-15,39.349998474121094],"min":[1.399999976158142,-3,-1.399999976158142],"type":"VEC3"},{"bufferView":14,"byteOffset":0,"componentType":5126,"count":150,"type":"VEC3"},{"bufferView":15,"byteOffset":0,"componentType":5126,"count":150,"type":"VEC2"},{"bufferView":16,"byteOffset":0,"componentType":5125,"count":768,"type":"SCALAR"},{"bufferView":17,"byteOffset":0,"componentType":5126,"count":264,"max":[49.999908447265625,49.999908447265625,0.004087328910827637],"min":[-49.999908447265625,-49.999908447265625,0],"type":"VEC3"},{"bufferView":18,"byteOffset":0,"componentType":5126,"count":264,"type":"VEC3"},{"bufferView":19,"byteOffset":0,"componentType":5126,"count":264,"type":"VEC2"}],"bufferViews":[{"buffer":0,"byteOffset":0,"byteLength":912,"target":34963},{"buffer":0,"byteOffset":912,"byteLength":1788,"target":34962},{"buffer":0,"byteOffset":2700,"byteLength":1788,"target":34962},{"buffer":0,"byteOffset":4488,"byteLength":1192,"target":34962},{"buffer":0,"byteOffset":5680,"byteLength":960,"target":34963},{"buffer":0,"byteOffset":6640,"byteLength":1800,"target":34962},{"buffer":0,"byteOffset":8440,"byteLength":1800,"target":34962},{"buffer":0,"byteOffset":10240,"byteLength":1200,"target":34962},{"buffer":0,"byteOffset":11440,"byteLength":912,"target":34963},{"buffer":0,"byteOffset":12352,"byteLength":1788,"target":34962},{"buffer":0,"byteOffset":14140,"byteLength":1788,"target":34962},{"buffer":0,"byteOffset":15928,"byteLength":1192,"target":34962},{"buffer":0,"byteOffset":17120,"byteLength":960,"target":34963},{"buffer":0,"byteOffset":18080,"byteLength":1800,"target":34962},{"buffer":0,"byteOffset":19880,"byteLength":1800,"target":34962},{"buffer":0,"byteOffset":21680,"byteLength":1200,"target":34962},{"buffer":0,"byteOffset":22880,"byteLength":3072,"target":34963},{"buffer":0,"byteOffset":25952,"byteLength":3168,"target":34962},{"buffer":0,"byteOffset":29120,"byteLength":3168,"target":34962},{"buffer":0,"byteOffset":32288,"byteLength":2112,"target":34962}],"cameras":[{"name":"Camera","type":"perspective","extras":{"targetDistance":0.13400623421257188},"perspective":{"aspectRatio":1.5383759733036708,"yfov":0.6108652381980153,"zfar":27.306932244770632,"znear":0.010576863071955576}}],"scene":0,"scenes":[{"nodes":[0,1,2,3,4,8],"name":"JD Logo"}],"extensionsUsed":["KHR_texture_transform"],"buffers":[{"byteLength":34400,"uri":"JDLogo.bin"}]}