{"asset":{"version":"2.0","generator":"VECTARY"},"nodes":[{"translation":[0,0.2,4.263256414560601e-17],"scale":[0.001,0.001,0.001],"rotation":[-0.7071067811865475,0,0,0.7071067811865476],"name":"Point Light","extensions":{"KHR_lights_punctual":{"light":0}}},{"translation":[-0.001617343955045818,-5.3290705182007515e-18,0.025851056344800248],"scale":[0.0009999999999999998,0.0009999999999999998,0.001],"rotation":[-0.4938607841824038,0.5060647447182436,0.5060647447182437,0.4938607841824039],"name":"3D Text 1 - J","mesh":0},{"translation":[-0.0022694144518344613,5.551115123125783e-20,-0.0008585028199169289],"scale":[0.0009999999999999998,0.0009999999999999998,0.001],"rotation":[-0.4938607841824038,0.5060647447182436,0.5060647447182437,0.4938607841824039],"name":"3D Text 1 - D","mesh":1},{"translation":[0.0006311115450955287,-5.3290705182007515e-18,0.025851056344800248],"scale":[0.0009999999999999998,0.0009999999999999998,0.001],"rotation":[-0.4938607841824038,0.5060647447182436,0.5060647447182437,0.4938607841824039],"name":"3D Text - J","mesh":2},{"translation":[-0.00002095895169311419,5.551115123125783e-20,-0.0008585028199169289],"scale":[0.0009999999999999998,0.0009999999999999998,0.001],"rotation":[-0.4938607841824038,0.5060647447182436,0.5060647447182437,0.4938607841824039],"name":"3D Text - D","mesh":3}],"extensions":{"KHR_lights_punctual":{"lights":[{"name":"Point Light","type":"point","intensity":4,"range":10000,"color":[1,1,1]}]}},"materials":[{"pbrMetallicRoughness":{"baseColorFactor":[0.37867625092984036,0.2888159727972186,0.7011695015314021,1],"metallicFactor":0,"roughnessFactor":0.25},"name":"Kimono 1","emissiveFactor":[0,0,0],"extensions":{},"alphaMode":"OPAQUE","doubleSided":false},{"pbrMetallicRoughness":{"baseColorFactor":[1,1,1,1],"metallicFactor":0,"roughnessFactor":0.25},"name":"Kimono","emissiveFactor":[0,0,0],"extensions":{},"alphaMode":"OPAQUE","doubleSided":false}],"meshes":[{"primitives":[{"mode":4,"attributes":{"POSITION":1,"NORMAL":2,"TEXCOORD_0":3},"material":0,"indices":0}]},{"primitives":[{"mode":4,"attributes":{"POSITION":5,"NORMAL":6,"TEXCOORD_0":7},"material":0,"indices":4}]},{"primitives":[{"mode":4,"attributes":{"POSITION":9,"NORMAL":10,"TEXCOORD_0":11},"material":1,"indices":8}]},{"primitives":[{"mode":4,"attributes":{"POSITION":13,"NORMAL":14,"TEXCOORD_0":15},"material":1,"indices":12}]}],"accessors":[{"bufferView":0,"byteOffset":0,"componentType":5125,"count":228,"type":"SCALAR"},{"bufferView":1,"byteOffset":0,"componentType":5126,"count":149,"max":[23.600000381469727,2.4094925798909218e-15,39.349998474121094],"min":[1.399999976158142,-3,-1.399999976158142],"type":"VEC3"},{"bufferView":2,"byteOffset":0,"componentType":5126,"count":149,"type":"VEC3"},{"bufferView":3,"byteOffset":0,"componentType":5126,"count":149,"type":"VEC2"},{"bufferView":4,"byteOffset":0,"componentType":5125,"count":240,"type":"SCALAR"},{"bufferView":5,"byteOffset":0,"componentType":5126,"count":150,"max":[23.600000381469727,2.4094925798909218e-15,39.349998474121094],"min":[1.399999976158142,-3,-1.399999976158142],"type":"VEC3"},{"bufferView":6,"byteOffset":0,"componentType":5126,"count":150,"type":"VEC3"},{"bufferView":7,"byteOffset":0,"componentType":5126,"count":150,"type":"VEC2"},{"bufferView":8,"byteOffset":0,"componentType":5125,"count":228,"type":"SCALAR"},{"bufferView":9,"byteOffset":0,"componentType":5126,"count":149,"max":[23.600000381469727,2.4094925798909218e-15,39.349998474121094],"min":[1.399999976158142,-3,-1.399999976158142],"type":"VEC3"},{"bufferView":10,"byteOffset":0,"componentType":5126,"count":149,"type":"VEC3"},{"bufferView":11,"byteOffset":0,"componentType":5126,"count":149,"type":"VEC2"},{"bufferView":12,"byteOffset":0,"componentType":5125,"count":240,"type":"SCALAR"},{"bufferView":13,"byteOffset":0,"componentType":5126,"count":150,"max":[23.600000381469727,2.4094925798909218e-15,39.349998474121094],"min":[1.399999976158142,-3,-1.399999976158142],"type":"VEC3"},{"bufferView":14,"byteOffset":0,"componentType":5126,"count":150,"type":"VEC3"},{"bufferView":15,"byteOffset":0,"componentType":5126,"count":150,"type":"VEC2"}],"bufferViews":[{"buffer":0,"byteOffset":0,"byteLength":912,"target":34963},{"buffer":0,"byteOffset":912,"byteLength":1788,"target":34962},{"buffer":0,"byteOffset":2700,"byteLength":1788,"target":34962},{"buffer":0,"byteOffset":4488,"byteLength":1192,"target":34962},{"buffer":0,"byteOffset":5680,"byteLength":960,"target":34963},{"buffer":0,"byteOffset":6640,"byteLength":1800,"target":34962},{"buffer":0,"byteOffset":8440,"byteLength":1800,"target":34962},{"buffer":0,"byteOffset":10240,"byteLength":1200,"target":34962},{"buffer":0,"byteOffset":11440,"byteLength":912,"target":34963},{"buffer":0,"byteOffset":12352,"byteLength":1788,"target":34962},{"buffer":0,"byteOffset":14140,"byteLength":1788,"target":34962},{"buffer":0,"byteOffset":15928,"byteLength":1192,"target":34962},{"buffer":0,"byteOffset":17120,"byteLength":960,"target":34963},{"buffer":0,"byteOffset":18080,"byteLength":1800,"target":34962},{"buffer":0,"byteOffset":19880,"byteLength":1800,"target":34962},{"buffer":0,"byteOffset":21680,"byteLength":1200,"target":34962}],"scene":0,"scenes":[{"nodes":[0,1,2,3,4],"name":"JD Logo"}],"extensionsUsed":["KHR_texture_transform","KHR_lights_punctual"],"extensionsRequired":["KHR_lights_punctual"],"buffers":[{"byteLength":22880,"uri":"JDLogo.bin"}]}